inDegrees=no
num_controls=7
num_derivatives=13
num_iterations=126
num_multipliers=7
num_parameters=0
num_slacks=7
num_states=26
objective=5.094758
objective_accelerations=0.405304
objective_balance=0.089884
objective_effort=0.350428
objective_height=4.187380
objective_ligament=0.061762
solver_duration=1408.307710
status=Solve_Succeeded
success=true
DataType=double
version=3
OpenSimVersion=4.4-2022-07-23-0e9fedc
endheader
time	/jointset/ground_pelvis/pelvis_tilt/value	/jointset/ground_pelvis/pelvis_tx/value	/jointset/ground_pelvis/pelvis_ty/value	/jointset/hip_l/hip_flexion_l/value	/jointset/hip_l/hip_adduction_l/value	/jointset/hip_l/hip_rotation_l/value	/jointset/back/lumbar_extension/value	/jointset/patellofemoral_l/patellar_flexion_l/value	/jointset/knee_l/knee_flexion_l/value	/jointset/knee_l/knee_adduction_l/value	/jointset/knee_l/knee_rotation_l/value	/jointset/ankle_l/ankle_angle_l/value	/jointset/subtalar_l/subtalar_angle_l/value	/jointset/ground_pelvis/pelvis_tilt/speed	/jointset/ground_pelvis/pelvis_tx/speed	/jointset/ground_pelvis/pelvis_ty/speed	/jointset/hip_l/hip_flexion_l/speed	/jointset/hip_l/hip_adduction_l/speed	/jointset/hip_l/hip_rotation_l/speed	/jointset/back/lumbar_extension/speed	/jointset/patellofemoral_l/patellar_flexion_l/speed	/jointset/knee_l/knee_flexion_l/speed	/jointset/knee_l/knee_adduction_l/speed	/jointset/knee_l/knee_rotation_l/speed	/jointset/ankle_l/ankle_angle_l/speed	/jointset/subtalar_l/subtalar_angle_l/speed	/forceset/tau_hip_flexion_l	/forceset/tau_hip_adduction_l	/forceset/tau_hip_rotation_l	/forceset/tau_knee_flexion_l	/forceset/tau_ankle_angle_l	/forceset/tau_subtalar_angle_l	/forceset/tau_lumbar_extension	lambda_cid13_p0	lambda_cid13_p1	lambda_cid13_p2	lambda_cid13_p3	lambda_cid13_p4	lambda_cid13_p5	lambda_cid14_p0	/jointset/ground_pelvis/pelvis_tilt/accel	/jointset/ground_pelvis/pelvis_tx/accel	/jointset/ground_pelvis/pelvis_ty/accel	/jointset/hip_l/hip_flexion_l/accel	/jointset/hip_l/hip_adduction_l/accel	/jointset/hip_l/hip_rotation_l/accel	/jointset/back/lumbar_extension/accel	/jointset/patellofemoral_l/patellar_flexion_l/accel	/jointset/knee_l/knee_flexion_l/accel	/jointset/knee_l/knee_adduction_l/accel	/jointset/knee_l/knee_rotation_l/accel	/jointset/ankle_l/ankle_angle_l/accel	/jointset/subtalar_l/subtalar_angle_l/accel	gamma_cid13_p0	gamma_cid13_p1	gamma_cid13_p2	gamma_cid13_p3	gamma_cid13_p4	gamma_cid13_p5	gamma_cid14_p0
0	-0.1601681343292288	0.05857489423223027	0.8979987683504781	0.3774920279260975	-0.2591367320360584	-0.2729747904694251	-0.0126506700172305	0.03223623128434912	0.03223623128433527	-0.1745328867826683	0.174531519448172	-0.04231376238535053	-0.009261108287461879	0	0	0	0	0	0	0	0	0	0	0	0	0	0.1416665641759646	-0.08774450766594506	-0.05269313522319966	-0.3140431521833785	0.336309945872582	-0.04039060473610674	-0.08290126854375174	65.77825679866048	0.06780338840662047	6.390572691581898	-19.45368952942644	-598.4202004585686	-78.14663829162784	-39.0745960908554	-3.186690829789911	-1.469525476535708	-0.8440320042700875	9.47952151391274	-1.03210200083074	2.556329982529467	-5.068530080018005	7.36808580527235	7.368085805271082	0.04854726341839173	0.01602109118097025	1.167332175441988	-0.7848713454048913	-2.191098878897347e-08	6.331744857249804e-08	5.169189120575083e-08	3.136087057325036e-09	2.783424621555279e-08	-4.85638368548389e-09	-7.28645496046831e-09
0.01	-0.160322128062213	0.05850232700226119	0.8979575297804669	0.3779542754524872	-0.25918797228514	-0.2728474729668706	-0.01290458658858963	0.0325961202416882	0.03259612024164914	-0.1745318623987639	0.1745299875296349	-0.04225773503562603	-0.009300519500908535	-0.03064026508481715	-0.01445151900363081	-0.008215915757423297	0.09202734344600479	-0.01019201751988483	0.02534062673369809	-0.05045906715574803	0.07166696710810617	0.07166696710809849	0.0002143435129330871	-0.0002933827192590368	0.01115868449991999	-0.007837111146047985	0.1362919413313693	-0.09778901188678367	-0.05151811129939729	-0.3073282986381791	0.3248127598818535	-0.02603922555718383	-0.07860426296390564	62.61475707290211	-5.326419740457697	6.925390601091776	-18.04083178030161	-599.3181565477954	-88.56972188672776	-39.08484695786952	-2.978927352625312	-1.423675436478005	-0.8055960581488986	9.00101170180184	-1.004362265918348	2.504492282882659	-4.985957965618078	7.01937996760009	7.019379967599874	0.009314374836484715	-0.05007235450680945	1.08311731502314	-0.7763769614691305	-3.575219310843601e-08	7.584841065737306e-08	6.720602536981378e-08	1.497202877554511e-08	-5.139713035850097e-08	8.121983217174784e-09	-1.061905382521734e-08
0.02	-0.1607777710470175	0.05828710251741518	0.8978350871135459	0.3793241306017289	-0.2593394548370956	-0.2724704365441826	-0.01365336641796082	0.03366335443087961	0.03366335443087636	-0.1745284072828686	0.1745259109038398	-0.0420915246953523	-0.009416951018268541	-0.06032985036149728	-0.02853145097538507	-0.0162408193819846	0.1815215245662922	-0.02004846057385365	0.04994378403108669	-0.09897265160206835	0.1414690463770244	0.1414690463770225	0.000486146210061611	-0.0005089414796061856	0.02203659811007994	-0.01540406078268959	0.1309173184870366	-0.1078335161075198	-0.05034308737525508	-0.3006134450929289	0.3133155738911784	-0.011687846378153	-0.07430725738389067	59.5119396190865	-10.73186423123161	7.462681706961843	-16.74488008982701	-599.2955583092453	-98.90591340179783	-39.11518957036809	-2.996554868162525	-1.395208070160381	-0.8058295776977784	8.972889048769041	-0.9649871076486431	2.408836095267344	-4.67943353813234	6.995108237434836	6.995108237436249	0.0600391002552795	0.03158588296368097	1.111177997489694	-0.7308390435247613	-4.959339742789854e-08	8.837937274224809e-08	8.272015953387671e-08	2.680797049376519e-08	-1.306285069325547e-07	2.110035011983346e-08	-1.395165268996637e-08
0.03	-0.1615258268143044	0.05793323475238691	0.8976332164889356	0.3815763710083972	-0.2595877901503549	-0.2718509868561085	-0.0148772325631871	0.03541953489384118	0.03541953489385295	-0.1745220322647508	0.1745201006220735	-0.04181747286749685	-0.009607578554525291	-0.08912633685961192	-0.0421488280350539	-0.02411099221571696	0.2684774272092053	-0.02956437289989971	0.07383202872500659	-0.1454675893660546	0.2094651945311056	0.2094651945311058	0.0007778977065241123	-0.0006433282374347627	0.03276891586974082	-0.02267006409483942	0.1259043251405523	-0.1014308499617445	-0.04962879482617753	-0.2959709672380597	0.3091306671003954	-0.01502765922654355	-0.07015070806121135	58.04580441793889	-9.164502725696893	7.372518461237497	-16.38897981141191	-599.5207583596331	-94.92515266259792	-39.16473898239828	-2.797955698720823	-1.331006015493152	-0.7742905834649515	8.489563662365265	-0.936772849092381	2.361689126885216	-4.584575683734626	6.656593155872209	6.656593155871659	0.01212030371151646	-0.03449258675947604	1.053527742943734	-0.7167964104307266	-6.480415682383324e-08	8.689008363847523e-08	1.071494473864682e-07	3.936353516684552e-08	-2.065046699481727e-07	1.624899838364939e-08	-1.896576644008804e-08
0.04	-0.1625571994781882	0.05744599251843699	0.8973533082465369	0.3846846949995502	-0.2599296604976745	-0.2709960806269877	-0.01655605844369034	0.0378466218486334	0.0378466218486346	-0.1745130643055749	0.174513238146363	-0.04143624404649639	-0.009869329210977369	-0.1169932296810741	-0.05520634475971307	-0.03184834293965222	0.352738241464643	-0.03875546738631987	0.09703509223615447	-0.1899645986581339	0.2756503447442849	0.2756503447442806	0.001004734377743002	-0.0007193802593881298	0.04347199673897732	-0.02962868482182906	0.1208913317939136	-0.09502818381606584	-0.04891450227721648	-0.2913284893833443	0.3049457603095153	-0.01836747207504888	-0.06599415873854078	56.63629407064642	-7.60577428342265	7.282270026539039	-16.14738687043386	-598.9036508413691	-90.86007107179529	-39.23251174131931	-2.810636132831906	-1.283236003158566	-0.7792651557383875	8.433871371273895	-0.9000235397237942	2.271799858712694	-4.27984784375085	6.63290864925455	6.632908649254643	0.04705613520590083	0.0432528301390142	1.105330619404603	-0.669362526493088	-8.004315446876738e-08	8.511171719060655e-08	1.31762552840885e-07	5.193393742662402e-08	-2.823116533027921e-07	1.103002358274691e-08	-2.401455060021739e-08
